<?xml version="1.0" encoding="UTF-8"?>
<svg viewBox="0 0 115.52024 148.42041" xmlns="http://www.w3.org/2000/svg" xmlns:xlink="http://www.w3.org/1999/xlink">
 <defs>
  <filter id="l">
   <feGaussianBlur stdDeviation=".2469"/>
  </filter>
  <filter id="k">
   <feGaussianBlur stdDeviation=".2587"/>
  </filter>
  <filter id="j">
   <feGaussianBlur stdDeviation=".2689"/>
  </filter>
  <filter id="i">
   <feGaussianBlur stdDeviation=".2933"/>
  </filter>
  <filter id="h">
   <feGaussianBlur stdDeviation=".5232"/>
  </filter>
  <filter id="d" x="-.2142" y="-.14212" width="1.4284" height="1.2842">
   <feGaussianBlur stdDeviation="2.2074"/>
  </filter>
  <filter id="o" x="-.20225" y="-.16027" width="1.4045" height="1.3205">
   <feGaussianBlur stdDeviation="2.5317"/>
  </filter>
  <filter id="n" x="-.20301" y="-.1438" width="1.406" height="1.2876">
   <feGaussianBlur stdDeviation="2.5317"/>
  </filter>
  <filter id="m" x="-.08591" y="-.10459" width="1.1718" height="1.2092">
   <feGaussianBlur stdDeviation="2.5317"/>
  </filter>
  <filter id="b" x="-.77335" y="-.70511" width="2.5467" height="2.4102">
   <feGaussianBlur stdDeviation="2.5317"/>
  </filter>
  <linearGradient id="a">
   <stop stop-color="#999" offset="0"/>
   <stop stop-color="#fff" offset="1"/>
  </linearGradient>
  <linearGradient id="c" x1="549.48" x2="574.21" gradientUnits="userSpaceOnUse" xlink:href="#a"/>
  <linearGradient id="g" x1="526.28" x2="556.32" gradientUnits="userSpaceOnUse" xlink:href="#a"/>
  <linearGradient id="f" x1="599.72" x2="629.65" gradientUnits="userSpaceOnUse" xlink:href="#a"/>
  <linearGradient id="e" x1="544.28" x2="615.01" gradientUnits="userSpaceOnUse" xlink:href="#a"/>
 </defs>
 <g transform="translate(-518.41 -99.184)">
  <path transform="matrix(1.1594 0 0 1.1346 -92.979 -16.67)" d="m549.48 136.83c-0.0994-10.293 5.3559-18.758 12.185-18.908s12.445 8.0726 12.545 18.365-5.3559 18.758-12.185 18.908c-6.7908 0.14897-12.39-7.9846-12.543-18.218" fill="#666" filter="url(#d)"/>
  <path transform="matrix(1.1594 0 0 1.1346 -57.852 -16.312)" d="m549.48 136.83c-0.0994-10.293 5.3559-18.758 12.185-18.908s12.445 8.0726 12.545 18.365-5.3559 18.758-12.185 18.908c-6.7908 0.14897-12.39-7.9846-12.543-18.218" fill="#666" filter="url(#d)"/>
  <path d="m535.85 155.12c-6.4518 0-16.846 18.639-7.8856 31.901 6.8346 10.115 25.449 6.8102 26.524-5.0181 0.52023-5.7225-5.3765-5.735-6.0934-10.036-0.65086-3.9052-3.9428-16.846-12.545-16.846z" fill="#666" fill-rule="evenodd" filter="url(#o)"/>
  <path d="m617.94 155.84c-2.7571-0.78776-12.545 4.3012-17.205 11.47-4.4201 6.8001-4.7118 28.626 7.1687 30.467 14.564 2.257 22.223-12.187 19.355-22.223-1.7724-6.2036-1.7922-17.563-9.3193-19.714z" fill="#666" fill-rule="evenodd" filter="url(#n)"/>
  <path d="m575.28 183.44c-16.862-0.46564-34.795 31.775-32.617 46.238 3.2259 21.506 24.015 7.1687 24.015 7.1687 12.545 9.3193 25.449-1.0753 25.449-1.0753 19.355 12.187 23.301-8.0234 20.072-13.62-21.506-37.277-18.988-38.283-36.919-38.711z" fill="#666" fill-rule="evenodd" filter="url(#m)"/>
  <path d="m530.45 153.16c2.5345-3.5483 4.8156-8.3639 4.8156-8.3639 0.5069 4.3087 3.0414 8.6173 3.0414 8.6173-3.0414-2.5345-7.857-0.25345-7.857-0.25345z" fill="#666" fill-rule="evenodd" filter="url(#b)"/>
  <path d="m552.12 113.62c2.5345-3.5483 4.8156-8.3639 4.8156-8.3639 0.5069 4.3087 3.0414 8.6173 3.0414 8.6173-3.0414-2.5345-7.857-0.25345-7.857-0.25345z" fill="#666" fill-rule="evenodd" filter="url(#b)"/>
  <path d="m590.39 114.13c2.5345-3.5483 4.8156-8.3639 4.8156-8.3639 0.5069 4.3087 3.0414 8.6173 3.0414 8.6173-3.0414-2.5345-7.857-0.25345-7.857-0.25345z" fill="#666" fill-rule="evenodd" filter="url(#b)"/>
  <path d="m613.46 149.61c2.5345-3.5483 4.8156-8.3639 4.8156-8.3639 0.5069 4.3087 3.0414 8.6173 3.0414 8.6173-3.0414-2.5345-7.857-0.25345-7.857-0.25345z" fill="#666" fill-rule="evenodd" filter="url(#b)"/>
  <path transform="matrix(1.1594 0 0 1.1346 -91.182 -17.221)" d="m549.48 136.83c-0.0994-10.293 5.3559-18.758 12.185-18.908s12.445 8.0726 12.545 18.365-5.3559 18.758-12.185 18.908c-6.7908 0.14897-12.39-7.9846-12.543-18.218" fill="url(#c)"/>
  <path transform="matrix(1.1594 0 0 1.1346 -56.056 -16.863)" d="m549.48 136.83c-0.0994-10.293 5.3559-18.758 12.185-18.908s12.445 8.0726 12.545 18.365-5.3559 18.758-12.185 18.908c-6.7908 0.14897-12.39-7.9846-12.543-18.218" fill="url(#c)"/>
  <path d="m537.65 154.57c-6.4518 0-16.846 18.639-7.8856 31.901 6.8346 10.115 25.449 6.8102 26.524-5.0181 0.52023-5.7225-5.3765-5.735-6.0934-10.036-0.65086-3.9052-3.9428-16.846-12.545-16.846z" fill="url(#g)" fill-rule="evenodd"/>
  <path d="m619.73 155.29c-2.7571-0.78776-12.545 4.3012-17.205 11.47-4.4201 6.8001-4.7118 28.626 7.1687 30.467 14.564 2.257 22.223-12.187 19.355-22.223-1.7724-6.2036-1.7922-17.563-9.3193-19.714z" fill="url(#f)" fill-rule="evenodd"/>
  <path d="m577.08 182.89c-16.862-0.46564-34.795 31.775-32.617 46.238 3.2259 21.506 24.015 7.1687 24.015 7.1687 12.545 9.3193 25.449-1.0753 25.449-1.0753 19.355 12.187 23.301-8.0234 20.072-13.62-21.506-37.277-18.988-38.283-36.919-38.711z" fill="url(#e)" fill-rule="evenodd"/>
  <path d="m532.25 152.61c2.5345-3.5483 4.8156-8.3639 4.8156-8.3639 0.5069 4.3087 3.0414 8.6173 3.0414 8.6173-3.0414-2.5345-7.857-0.25345-7.857-0.25345z" fill="#ececec" fill-rule="evenodd"/>
  <path d="m553.92 113.07c2.5345-3.5483 4.8156-8.3639 4.8156-8.3639 0.5069 4.3087 3.0414 8.6173 3.0414 8.6173-3.0414-2.5345-7.857-0.25345-7.857-0.25345z" fill="#ececec" fill-rule="evenodd"/>
  <path d="m592.19 113.58c2.5345-3.5483 4.8156-8.3639 4.8156-8.3639 0.5069 4.3087 3.0414 8.6173 3.0414 8.6173-3.0414-2.5345-7.857-0.25345-7.857-0.25345z" fill="#ececec" fill-rule="evenodd"/>
  <path d="m615.25 149.06c2.5345-3.5483 4.8156-8.3639 4.8156-8.3639 0.5069 4.3087 3.0414 8.6173 3.0414 8.6173-3.0414-2.5345-7.857-0.25345-7.857-0.25345z" fill="#ececec" fill-rule="evenodd"/>
  <path transform="matrix(1.1594 0 0 1.1346 -90.472 -17.029)" d="m561.72 120.47c-2.3788 0.0522-4.7486 1.5896-6.625 4.5-1.8967 2.942-3.1391 7.149-3.0938 11.844 3e-5 7e-3 3e-5 0.0243 0 0.0313v0.125c-1.2e-4 0.0104-1.2e-4 0.0208 0 0.0313 0.0696 4.6745 1.4443 8.7016 3.375 11.5 1.908 2.7655 4.2294 4.2081 6.5938 4.1562 2.3788-0.0522 4.7486-1.5896 6.625-4.5 1.8967-2.942 3.1391-7.149 3.0938-11.844-0.0453-4.6971-1.4044-8.8272-3.3438-11.656-1.9121-2.7892-4.2477-4.2397-6.625-4.1875z" fill="#ececec" filter="url(#k)"/>
  <path transform="matrix(1.1594 0 0 1.1346 -55.346 -16.67)" d="m561.75 121.06c-2.1338 0.0468-4.3489 1.4153-6.1562 4.2188-1.815 2.8152-3.0442 6.9492-3 11.531 3e-5 9e-3 3e-5 0.0222 0 0.0313v0.125c0.0679 4.559 1.3991 8.5361 3.25 11.219 1.8418 2.6696 3.9756 3.9215 6.0938 3.875 2.1338-0.0468 4.3489-1.4153 6.1562-4.2188 1.815-2.8152 3.0442-6.9491 3-11.531s-1.3624-8.6358-3.2188-11.344c-1.8454-2.692-3.9947-3.953-6.125-3.9062z" fill="#ececec" filter="url(#l)"/>
  <path d="m538.40625,158.34375c-.21564.0326-.41973.11854-.59375.25 .0183-.0119-.0146.0348-.0625.0625l-.0313.0313c-.0988.0571-.25238.12818-.4375.25-.40175.26436-.91702.66263-1.46875,1.28125-1.39085,1.55948-2.80739,3.94557-3.8125,6.71875-2.00316,5.52685-2.29138,12.24625 1.40625,17.71875 2.50399,3.70591 7.38589,5.04265 11.875,4.21875 2.20892-.40541 4.13385-1.20077 5.59375-2.46875s2.40863-3.02621 2.59375-5.0625c.0228-.25113.0375-.34072.0625-.5 .0125-.0796.0327-.18249 0-.46875s-.28262-.76171-.5-.9375c-.43476-.35159-.396-.24097-.46875-.28125s-.1919-.10688-.4375-.3125c-1.39494-1.16785-4.09924-2.90795-4.71875-6.625-.28137-1.68831-1.24026-5.63968-2.9375-8.84375-.79745-1.50543-1.59445-2.66239-2.53125-3.53125s-2.05404-1.42558-3.25-1.5c-.0935-.0101-.18777-.0101-.28125,0z" fill="#ececec" fill-rule="evenodd" filter="url(#j)"/>
  <path d="m619.03 158.91-0.25 0.0313c0.0969-0.0206 0.3006-0.0166 0.15625 0s-0.4431 0.0727-0.59375 0.125c-1.0879 0.37794-2.5222 1.054-4.0625 2-3.0703 1.8856-6.2654 4.6343-8.25 7.6875-0.59223 0.91112-0.70135 1.4972-0.96875 2.4688s-0.53282 2.1698-0.75 3.5c-0.43436 2.6604-0.711 5.8336-0.3125 8.875 0.38665 2.951 1.203 5.5138 2.4375 7.4062 1.0553 1.6177 2.7848 2.8592 4.5 3.125 6.0017 0.93009 10.372-1.6186 13-5.1875 2.8181-3.8275 3.7794-8.8034 2.625-12.844-1.0611-3.714-1.4459-7.8302-2.5-11.344-0.42824-1.4274-0.85362-2.4871-1.4062-3.4062s-1.3327-1.7145-2.1562-2.1562c-0.44962-0.24085-0.96196-0.33896-1.4688-0.28125z" fill="#ececec" fill-rule="evenodd" filter="url(#i)"/>
  <path d="m577.62 189.12c-4.5327-0.12517-12.461 5.8177-18.219 14.75s-8.9086 20.365-8.2812 24.531c0.65076 4.3384 1.8507 5.6364 2.5938 6.1562s1.8679 0.73187 3.7188 0.4375c3.7017-0.58874 8.3438-3.4688 8.3438-3.4688 2.1215-1.4545 4.9318-1.4043 7 0.125 4.6147 3.4281 8.5091 3.0761 12.094 2s5.9688-2.9375 5.9688-2.9375c2.0072-1.6162 4.8193-1.7794 7-0.40625 4.1237 2.5964 6.7387 2.9864 8 2.875s1.6771-0.42474 2.375-1.4062 1.2965-2.7174 1.4375-4.3125-0.40188-3.1133-0.15625-2.6875c-10.815-18.746-15.929-28.501-19.156-32.219-1.6138-1.859-2.2873-2.2428-3.875-2.6875s-4.4194-0.64442-8.8438-0.75z" fill="#ececec" fill-rule="evenodd" filter="url(#h)"/>
 </g>
</svg>
